<?xml version="1.0" standalone="no"?><!DOCTYPE svg PUBLIC "-//W3C//DTD SVG 1.1//EN" "http://www.w3.org/Graphics/SVG/1.1/DTD/svg11.dtd"><svg t="1771731853206" class="icon" viewBox="0 0 1024 1024" version="1.1" xmlns="http://www.w3.org/2000/svg" p-id="30241" xmlns:xlink="http://www.w3.org/1999/xlink" width="200" height="200"><path d="M750.933333 442.311111v202.24a170.666667 170.666667 0 0 1-109.738666 159.402667L512 853.333333l-129.194667-49.379555A170.666667 170.666667 0 0 1 273.066667 644.522667V442.311111l238.933333 102.769778 238.933333-102.769778zM227.555556 396.657778v228.323555H170.666667v-228.323555h56.888889z m295.025777-223.829334l316.302223 136.675556c12.515556 5.404444 17.92 19.2 12.088888 30.805333a24.177778 24.177778 0 0 1-12.088888 11.207111l-316.302223 136.647112a26.851556 26.851556 0 0 1-21.162666 0l-316.302223-136.647112c-12.515556-5.404444-17.92-19.2-12.088888-30.805333a24.177778 24.177778 0 0 1 12.088888-11.207111l316.302223-136.675556a26.851556 26.851556 0 0 1 21.162666 0z" fill="#3595FA" p-id="30242"></path></svg>