<?xml version="1.0" standalone="no"?>
<!DOCTYPE svg PUBLIC "-//W3C//DTD SVG 1.1//EN"
  "http://www.w3.org/Graphics/SVG/1.1/DTD/svg11.dtd">
<svg
  t="1771746742711"
  class="icon"
  viewBox="0 0 1024 1024"
  version="1.1"
  xmlns="http://www.w3.org/2000/svg"
  p-id="42516"
  xmlns:xlink="http://www.w3.org/1999/xlink"
  width="200"
  height="200"
>
  <path
    d="M685.1 343.9h-117c-22.1 0-40 17.9-40 40s17.9 40 40 40h117c22.1 0 40-17.9 40-40s-17.9-40-40-40zM442 348h-26.8l-8.3-25.5c-3.1-9.5-12-16-22-16s-18.9 6.4-22 16l-8.3 25.5h-26.8c-10 0-18.9 6.4-22 16-3.1 9.5 0.3 19.9 8.4 25.8l21.7 15.7-8.3 25.5c-3.1 9.5 0.3 19.9 8.4 25.8 4 2.9 8.8 4.4 13.6 4.4s9.5-1.5 13.6-4.4l21.7-15.7 21.7 15.7c8.1 5.9 19.1 5.9 27.2 0 8.1-5.9 11.5-16.3 8.4-25.8l-8.3-25.5 21.7-15.7c8.1-5.9 11.5-16.3 8.4-25.8-3.1-9.5-12-16-22-16zM608.6 601.6h-40.5c-22.1 0-40 17.9-40 40s17.9 40 40 40h40.5c22.1 0 40-17.9 40-40s-18-40-40-40zM442 605.7h-26.8l-8.3-25.5c-3.1-9.5-12-16-22-16s-18.9 6.4-22 16l-8.3 25.5h-26.8c-10 0-18.9 6.4-22 16-3.1 9.5 0.3 19.9 8.4 25.8l21.7 15.7-8.3 25.5c-3.1 9.5 0.3 19.9 8.4 25.8 8.1 5.9 19.1 5.9 27.2 0l21.7-15.7 21.7 15.7c4 2.9 8.8 4.4 13.6 4.4 4.8 0 9.5-1.5 13.6-4.4 8.1-5.9 11.5-16.3 8.4-25.8l-8.3-25.5 21.7-15.7c8.1-5.9 11.5-16.3 8.4-25.8-3.1-9.5-12-16-22-16z"
    p-id="42517"
  />
  <path
    d="M916.9 845.3h-33.2V243.7c0-79.9-63.6-144.9-141.8-144.9H282.1c-78.2 0-141.8 65-141.8 144.9v601.6h-33.2c-22.1 0-40 17.9-40 40s17.9 40 40 40h809.7c22.1 0 40-17.9 40-40s-17.9-40-39.9-40zM220.3 243.7c0-35.8 27.7-64.9 61.8-64.9h459.8c34.1 0 61.8 29.1 61.8 64.9v601.6H220.3V243.7z"
    p-id="42518"
  />
</svg>
