<?xml version="1.0" standalone="no"?><!DOCTYPE svg PUBLIC "-//W3C//DTD SVG 1.1//EN" "http://www.w3.org/Graphics/SVG/1.1/DTD/svg11.dtd"><svg t="1771732116894" class="icon" viewBox="0 0 1024 1024" version="1.1" xmlns="http://www.w3.org/2000/svg" p-id="39577" xmlns:xlink="http://www.w3.org/1999/xlink" width="200" height="200"><path d="M573.361231 335.399385A332.484923 332.484923 0 0 1 905.846154 667.884308V921.6a78.769231 78.769231 0 0 1-78.769231 78.769231H196.923077a78.769231 78.769231 0 0 1-78.769231-78.769231v-253.715692a332.484923 332.484923 0 0 1 332.484923-332.484923h122.722462z m0 63.015384h-122.722462A269.469538 269.469538 0 0 0 181.169231 667.884308V921.6c0 8.664615 7.089231 15.753846 15.753846 15.753846h630.153846a15.753846 15.753846 0 0 0 15.753846-15.753846v-253.715692a269.469538 269.469538 0 0 0-269.469538-269.469539z" fill="#4C4C4C" p-id="39578"></path><path d="M65.339077 246.508308l166.715077 198.695384a31.507692 31.507692 0 1 0 48.285538-40.487384L113.585231 205.981538A31.507692 31.507692 0 0 0 65.378462 246.547692zM956.337231 244.027077l-170.889846 203.618461a31.507692 31.507692 0 0 1-48.246154-40.487384l170.889846-203.618462a31.507692 31.507692 0 1 1 48.246154 40.487385z" fill="#4C4C4C" p-id="39579"></path><path d="M334.769231 630.153846h354.461538a19.692308 19.692308 0 0 1 19.692308 19.692308v118.153846a19.692308 19.692308 0 0 1-19.692308 19.692308h-354.461538a19.692308 19.692308 0 0 1-19.692308-19.692308v-118.153846a19.692308 19.692308 0 0 1 19.692308-19.692308z" fill="#DD4030" p-id="39580"></path><path d="M181.169231 630.153846v236.307692h-118.153846a39.384615 39.384615 0 0 1-39.384616-39.384615v-157.538461a39.384615 39.384615 0 0 1 39.384616-39.384616h118.153846z m-94.523077 63.015385v110.276923H118.153846v-110.276923h-31.507692zM960.984615 630.153846a39.384615 39.384615 0 0 1 39.384616 39.384616v157.538461a39.384615 39.384615 0 0 1-39.384616 39.384615h-118.153846v-236.307692h118.153846zM905.846154 693.169231v110.276923h31.507692v-110.276923H905.846154zM409.757538 170.614154l49.664 71.207384a31.507692 31.507692 0 0 0 55.768616-8.152615l20.48-62.109538 19.298461 61.636923a31.507692 31.507692 0 0 0 56.871385 7.08923l40.369231-65.536 12.563692 10.633847a31.507692 31.507692 0 0 0 20.361846 7.483077h76.209231a31.507692 31.507692 0 1 0 0-63.015385h-64.669538l-31.704616-26.860308a31.507692 31.507692 0 0 0-47.222154 7.522462l-23.276307 37.848615-27.884308-89.206154c-9.137231-29.223385-50.412308-29.538462-59.982769-0.472615l-31.507693 95.468308-31.507692-45.13477a31.507692 31.507692 0 0 0-43.598769-7.995077l-42.220308 28.790154h-70.498461a31.507692 31.507692 0 1 0 0 63.015385H367.458462a31.507692 31.507692 0 0 0 17.723076-5.513846l24.536616-16.699077z" fill="#4C4C4C" p-id="39581"></path></svg>