<?xml version="1.0" standalone="no"?><!DOCTYPE svg PUBLIC "-//W3C//DTD SVG 1.1//EN" "http://www.w3.org/Graphics/SVG/1.1/DTD/svg11.dtd"><svg t="1772459481183" class="icon" viewBox="0 0 1024 1024" version="1.1" xmlns="http://www.w3.org/2000/svg" p-id="4832" xmlns:xlink="http://www.w3.org/1999/xlink" width="200" height="200"><path d="M860.091733 419.950933c0 5.546667-4.693333 10.24-10.248533 10.24H603.707733c-5.563733 0-10.248533-4.693333-10.248533-10.24V174.088533c0-5.546667 4.6848-10.24 10.24-10.24h246.144c5.563733 0 10.24 4.693333 10.24 10.24v245.8624zM849.8432 102.4H603.707733C564.138667 102.4 531.9424 134.562133 531.9424 174.088533v245.8624c0 39.5264 32.196267 71.688533 71.765333 71.688534h246.135467c39.560533 0 71.765333-32.170667 71.765333-71.688534V174.088533C921.6 134.562133 889.403733 102.4 849.834667 102.4z" p-id="4833"></path><path d="M430.523733 419.950933c0 5.546667-4.693333 10.24-10.248533 10.24H174.165333c-5.572267 0-10.248533-4.693333-10.248533-10.24V174.088533c0-5.546667 4.676267-10.24 10.24-10.24h246.1184c5.563733 0 10.24 4.693333 10.24 10.24v245.8624zM420.266667 102.4H174.165333C134.587733 102.4 102.4 134.562133 102.4 174.088533v245.8624c0 39.5264 32.187733 71.688533 71.765333 71.688534h246.101334c39.569067 0 71.765333-32.170667 71.765333-71.688534V174.088533c0-39.5264-32.196267-71.688533-71.765333-71.688533zM430.523733 849.911467c0 5.546667-4.693333 10.24-10.248533 10.24H174.165333c-5.572267 0-10.248533-4.693333-10.248533-10.24V604.049067c0-5.546667 4.676267-10.24 10.24-10.24h246.1184c5.563733 0 10.24 4.693333 10.24 10.24v245.8624zM420.266667 532.360533H174.165333c-39.5776 0-71.765333 32.1536-71.765333 71.688534v245.8624c0 39.5264 32.187733 71.688533 71.765333 71.688533h246.101334c39.569067 0 71.765333-32.170667 71.765333-71.688533V604.049067c0-39.534933-32.196267-71.688533-71.765333-71.688534z" p-id="4834"></path><path d="M562.696533 537.864533a30.7456 30.7456 0 0 0-30.754133 30.72v52.437334a30.7456 30.7456 0 0 0 30.754133 30.728533 30.737067 30.737067 0 0 0 30.754134-30.72V568.576c0-16.964267-13.7728-30.72-30.754134-30.72M562.696533 695.517867a30.7456 30.7456 0 0 0-30.754133 30.72v162.730666c0 16.964267 13.781333 30.72 30.754133 30.72a30.737067 30.737067 0 0 0 30.754134-30.72v-162.730666c0-16.964267-13.7728-30.72-30.754134-30.72M726.775467 536.686933a30.737067 30.737067 0 0 0-30.754134 30.72v107.5456c0 16.964267 13.7728 30.72 30.754134 30.72a30.7456 30.7456 0 0 0 30.754133-30.72V567.406933c0-16.9728-13.781333-30.72-30.754133-30.72M726.775467 748.296533a30.737067 30.737067 0 0 0-30.754134 30.72v107.5456c0 16.964267 13.7728 30.72 30.754134 30.72a30.7456 30.7456 0 0 0 30.754133-30.72V779.008c0-16.9728-13.781333-30.72-30.754133-30.72M890.845867 536.686933a30.737067 30.737067 0 0 0-30.754134 30.72v52.4544c0 16.9728 13.7728 30.72 30.754134 30.72a30.737067 30.737067 0 0 0 30.754133-30.72v-52.4544c0-16.9728-13.7728-30.72-30.754133-30.72M890.845867 691.8656a30.737067 30.737067 0 0 0-30.754134 30.72v162.730667c0 16.9728 13.7728 30.72 30.754134 30.72a30.737067 30.737067 0 0 0 30.754133-30.72v-162.730667c0-16.964267-13.7728-30.72-30.754133-30.72" p-id="4835"></path></svg>