<?xml version="1.0" standalone="no"?><!DOCTYPE svg PUBLIC "-//W3C//DTD SVG 1.1//EN" "http://www.w3.org/Graphics/SVG/1.1/DTD/svg11.dtd"><svg t="1771731738643" class="icon" viewBox="0 0 1024 1024" version="1.1" xmlns="http://www.w3.org/2000/svg" p-id="27887" xmlns:xlink="http://www.w3.org/1999/xlink" width="200" height="200"><path d="M448.1 576m-384 0a384 384 0 1 0 768 0 384 384 0 1 0-768 0Z" fill="#FFDEDE" p-id="27888"></path><path d="M539.8 274.9H437.5c-13.2 0-24.1-10.8-24.1-24.1 0-13.2 10.8-24.1 24.1-24.1h102.3c13.2 0 24.1 10.8 24.1 24.1s-10.9 24.1-24.1 24.1z m0 150.5H437.5c-13.2 0-24.1-10.8-24.1-24.1 0-13.2 10.8-24.1 24.1-24.1h102.3c13.2 0 24.1 10.8 24.1 24.1 0 13.2-10.9 24.1-24.1 24.1z m0 150.5H437.5c-13.2 0-24.1-10.8-24.1-24.1 0-13.2 10.8-24.1 24.1-24.1h102.3c13.2 0 24.1 10.8 24.1 24.1 0 13.2-10.9 24.1-24.1 24.1z m0 0" fill="#020202" p-id="27889"></path><path d="M774.2 688.7H665.3c-1.3-1.1-2.1-2.7-2.1-4.5V344.1c0-3.3 2.7-6 6-6h165.5c3.3 0 6 2.7 6 6V410h48.2v-65.9c0-29.9-24.3-54.2-54.2-54.2H669.2c-2 0-4 0.1-6 0.3V118.4c0-29.9-24.3-54.2-54.2-54.2H368.3c-29.9 0-54.2 24.3-54.2 54.2v565.8c0 1.6 0.1 3.1 0.2 4.5h-24.6c-11.7 0-22.9 9.4-24.4 21-1.8 14.6 9.6 27.2 23.9 27.2h485.4c14.3 0 25.7-12.6 23.9-27.2-1.4-11.6-12.6-21-24.3-21zM615 684.2c0 1.8-0.8 3.4-2.1 4.5H364.3c-1.3-1.1-2.1-2.7-2.1-4.5V118.4c0-3.3 2.7-6 6-6H609c3.3 0 6 2.7 6 6v565.8z" fill="#020202" p-id="27890"></path><path d="M940.9 689.9c-5.2 0-10.1-2.1-13.7-5.8l-52.1-52c-17.8 12.3-39.1 18.8-60.6 18.8-59.1 0-107-47.9-107-107s47.9-107 107-107 107 47.9 107 107c0 21.6-6.5 42.9-18.8 60.6l52.1 52.1c3.6 3.7 5.6 8.6 5.6 13.7 0 10.8-8.8 19.6-19.5 19.6z m-126.4-214c-37.5 0-68.1 30.5-68.1 68.1 0 37.5 30.5 68.1 68.1 68.1 37.5 0 68.1-30.5 68.1-68.1 0-37.5-30.6-68.1-68.1-68.1z m0 0" fill="#FA5858" p-id="27891"></path></svg>