<?xml version="1.0" standalone="no"?><!DOCTYPE svg PUBLIC "-//W3C//DTD SVG 1.1//EN" "http://www.w3.org/Graphics/SVG/1.1/DTD/svg11.dtd"><svg t="1771731568361" class="icon" viewBox="0 0 1024 1024" version="1.1" xmlns="http://www.w3.org/2000/svg" p-id="24510" xmlns:xlink="http://www.w3.org/1999/xlink" width="200" height="200"><path d="M436.693333 739.584l-36.394666-14.592 2.389333-19.370667 41.301333-162.816H366.208l-14.592-21.802666 2.389333-12.117334L421.973333 307.2c7.253333-19.413333 24.32-34.005333 46.165334-34.005333h114.218666c16.981333 0 31.573333 9.685333 41.301334 21.888 9.685333 12.202667 9.685333 31.616 2.389333 46.208l-36.48 77.824h67.968l14.634667 26.666666-9.728 12.202667-225.792 281.6z m-24.32-247.765333h75.306667l14.634667 16.981333-2.432 12.117333-21.888 89.984 114.218666-140.885333h-55.893333l-14.634667-24.32 4.906667-12.117333 55.893333-111.786667h-114.176l-55.893333 170.026667z" p-id="24511"></path><path d="M477.184 900.821333H220.416c-41.301333 0-72.917333-34.005333-72.917333-77.824V201.002667c0-43.690667 34.005333-77.824 72.917333-77.824h583.168c41.301333 0 72.917333 34.005333 72.917333 77.824v270.208c0 14.592-9.685333 24.32-24.32 24.32-14.592 0-24.32-9.728-24.32-24.32V200.96c0-17.024-12.074667-29.184-24.277333-29.184H220.416c-12.202667 0-24.32 12.074667-24.32 29.184v621.994667c0 16.981333 12.117333 29.184 24.32 29.184h256.768c14.634667 0 24.32 9.728 24.32 24.32 0 14.592-9.685333 24.32-24.32 24.32z m211.498667-146.005333c-2.773333 2.090667-5.290667 4.266667-7.978667 6.101333 2.688-1.834667 5.205333-4.010667 7.978667-6.101333z m-41.984 18.688a156.202667 156.202667 0 0 0-15.189334 2.389333l-6.4 0.725334 6.4-0.725334c5.12-0.597333 10.197333-1.28 15.189334-2.389333z m-52.906667 57.258667c-6.613333-0.426667-13.226667-1.28-19.712-2.517334-1.962667-0.341333-3.968-0.768-5.973333-1.28a163.029333 163.029333 0 0 0 25.685333 3.797334z" p-id="24512"></path><path d="M532.010667 813.098667a23.68 23.68 0 0 1-7.296-8.277334 14.549333 14.549333 0 0 1-1.408-6.314666v-42.410667c0-0.512 0-0.896 0.085333-1.578667l-0.085333 1.578667v42.410667c0 2.304 0.512 4.266667 1.408 6.314666a21.973333 21.973333 0 0 0 7.253333 8.277334c7.125333 5.418667 14.933333 8.533333 22.912 10.666666 1.024 0.341333 2.005333 0.554667 3.114667 0.853334l-3.114667-0.853334a65.536 65.536 0 0 1-22.869333-10.666666z m200.874666 75.690666a50.858667 50.858667 0 0 1-15.701333-9.386666 18.133333 18.133333 0 0 1-5.888-9.088 17.493333 17.493333 0 0 1-0.426667-3.2V824.32c0-0.426667 0.128-0.725333 0.128-1.408l-0.085333 1.408v42.794667c0 1.066667 0.085333 2.176 0.426667 3.2 0.981333 4.096 3.242667 6.784 5.845333 9.088 4.693333 4.394667 10.112 7.082667 15.701333 9.386666 10.026667 4.096 20.224 6.4 30.634667 8.021334 5.376 0.810667 10.794667 1.194667 16.213333 1.578666-5.418667-0.426667-10.837333-0.768-16.213333-1.578666a131.498667 131.498667 0 0 1-30.634667-8.021334z m-57.130666-72.490666l-4.266667 4.266666c1.450667-1.408 2.858667-2.645333 4.266667-4.266666z m-55.936-37.248c1.450667-0.426667 2.773333-0.426667 4.266666-0.853334a14.08 14.08 0 0 0-4.266666 0.853334z m172.288 121.642666c-1.92 0-3.925333-0.426667-5.802667-0.426666 1.877333 0 3.797333 0.426667 5.802667 0.426666z m61.098666-11.392z" p-id="24513"></path><path d="M688.682667 825.813333c0-0.512 0-0.896-0.085334-1.621333l-0.597333 0.512c-2.901333 2.176-5.717333 4.778667-8.704 6.613333a92.288 92.288 0 0 1-27.008 10.496 159.701333 159.701333 0 0 1-23.594667 4.096 217.514667 217.514667 0 0 1-46.933333-0.298666 136.661333 136.661333 0 0 1-30.464-6.229334 73.386667 73.386667 0 0 1-20.181333-9.173333c-2.602667-1.792-5.12-3.925333-7.68-5.888 2.56 1.962667 5.077333 4.096 7.68 5.888 6.4 4.266667 13.184 7.082667 20.053333 9.173333 5.418667 1.621333 10.922667 2.986667 16.426667 4.224 4.693333 0.981333 9.386667 1.578667 14.08 2.005334 8.021333 0.682667 16.128 1.408 24.106666 1.408 7.637333 0.085333 15.232-0.512 22.826667-1.109334 7.893333-0.725333 15.786667-2.133333 23.594667-4.096 9.301333-2.304 18.517333-5.205333 27.008-10.496 2.986667-1.92 5.802667-4.437333 8.704-6.613333 0.170667-0.085333 0.298667-0.298667 0.597333-0.512a5.290667 5.290667 0 0 1 0.170667 1.621333v42.197334-42.24z m115.498666 19.626667c5.333333-0.426667 10.709333-0.64 16-1.322667 5.034667-0.597333 10.026667-1.408 14.933334-2.602666a202.24 202.24 0 0 0 18.005333-5.12 61.568 61.568 0 0 0 22.485333-13.098667c-0.810667 0.810667-1.493333 1.408-2.304 2.133333a61.568 61.568 0 0 1-20.181333 10.965334 217.941333 217.941333 0 0 1-18.005333 5.12 125.482667 125.482667 0 0 1-14.933334 2.56c-5.376 0.725333-10.666667 1.024-16 1.322666zM712.533333 757.589333v-2.133333 2.133333z m163.84 40.746667a15.018667 15.018667 0 0 1-2.261333 8.021333 29.824 29.824 0 0 1-10.922667 9.813334c-6.826667 3.968-13.909333 6.570667-21.077333 8.490666a198.826667 198.826667 0 0 1-14.933333 3.285334c-0.981333 0.213333-1.962667 0.298667-2.986667 0.512 1.024-0.213333 2.005333-0.298667 2.986667-0.512 5.034667-0.853333 10.026667-2.090667 14.933333-3.285334 7.253333-1.792 14.378667-4.522667 21.077333-8.533333a29.824 29.824 0 0 0 10.922667-9.770667 15.274667 15.274667 0 0 0 2.304-8.021333v-42.496c0-0.384 0-0.853333-0.128-1.365333 0 0.469333 0.128 0.981333 0.128 1.365333 0 14.08-0.128 28.330667 0 42.496z m-0.085333-137.472a14.506667 14.506667 0 0 1-2.901333 8.533333 33.450667 33.450667 0 0 1-11.904 9.770667c-6.485333 3.584-13.184 5.973333-20.181334 7.68-5.12 1.194667-10.24 2.517333-15.317333 3.328a163.413333 163.413333 0 0 1-18.474667 1.962667c-7.424 0.426667-14.933333 0.512-22.4 0.298666a158.549333 158.549333 0 0 1-16.810666-1.365333 194.816 194.816 0 0 1-15.018667-2.432 90.453333 90.453333 0 0 1-30.293333-11.178667l0 0c9.6 5.973333 19.925333 8.96 30.293333 11.178667 5.034667 1.109333 10.026667 1.834667 15.018667 2.432 5.589333 0.682667 11.221333 1.28 16.810666 1.365333 7.509333 0.213333 14.890667 0.128 22.4-0.298666 6.186667-0.298667 12.288-1.066667 18.474667-1.962667 5.12-0.853333 10.24-2.133333 15.317333-3.328 6.912-1.706667 13.696-4.181333 20.181334-7.68a33.450667 33.450667 0 0 0 11.946666-9.813333 14.506667 14.506667 0 0 0 2.858667-8.533334v-43.178666l-0.085333-0.768 0.085333 0.768a3110.4 3110.4 0 0 1 0 43.221333z m-92.885333 171.690667c10.197333 1.365333 20.394667 0.853333 30.592-2.133334 1.621333-0.554667 3.285333-0.853333 4.906666-1.365333a33.194667 33.194667 0 0 1-4.906666 1.365333c-10.197333 3.2-20.394667 3.498667-30.592 2.133334z m-49.706667-64.512l0 0zM618.581333 761.557333c-4.266667 1.28-8.576 1.28-14.165333 2.56 5.546667-1.28 9.984-1.706667 14.165333-2.56z m-87.082666-18.176c6.4 5.034667 13.482667 7.936 20.693333 10.24 10.325333 3.413333 20.821333 5.376 31.402667 6.4 0.213333 0 0.426667 0 0.512 0.085334-0.213333 0-0.426667 0-0.512-0.128a148.394667 148.394667 0 0 1-31.402667-6.4 66.56 66.56 0 0 1-20.693333-10.197334 23.765333 23.765333 0 0 1-6.314667-6.997333 13.184 13.184 0 0 1 0.512-14.506667 31.061333 31.061333 0 0 1 10.666667-9.472 74.24 74.24 0 0 1 18.048-7.594666 218.88 218.88 0 0 1 17.792-4.224c5.717333-0.981333 11.605333-1.706667 17.408-2.090667 0.768-0.085333 1.578667-0.085333 2.389333-0.213333-0.810667 0.128-1.578667 0.128-2.389333 0.213333-5.802667 0.426667-11.605333 1.024-17.408 2.133333-5.973333 1.066667-11.904 2.474667-17.792 4.181334-6.229333 1.706667-12.202667 4.096-18.005334 7.594666a31.061333 31.061333 0 0 0-10.666666 9.514667 13.354667 13.354667 0 0 0-0.554667 14.506667c1.706667 2.986667 3.925333 5.077333 6.314667 6.954666zM871.722667 580.821333c1.28 1.28 2.56 2.56 3.413333 4.266667-0.853333-1.706667-2.133333-2.986667-3.413333-4.266667z m-21.12 120.234667z m-178.688 47.658667z m168.874666 7.978666c-6.101333 1.408-12.288 2.901333-18.474666 3.712-12.032 1.706667-24.021333 2.389333-36.096 1.792-4.906667-0.298667-9.813333-0.426667-14.72-0.981333a180.48 180.48 0 0 1-31.573334-6.528 60.245333 60.245333 0 0 1-22.186666-11.392 20.906667 20.906667 0 0 1-5.632-7.296 13.994667 13.994667 0 0 1-1.194667-5.802667v-42.496c0-0.426667 0-0.810667 0.085333-1.408l-0.085333 1.408v42.496c0 2.133333 0.426667 4.010667 1.194667 5.802667a20.906667 20.906667 0 0 0 5.589333 7.296c6.826667 5.802667 14.421333 9.002667 22.186667 11.392a180.48 180.48 0 0 0 31.573333 6.485333c4.949333 0.64 9.813333 0.725333 14.762667 1.024 12.074667 0.597333 24.064-0.085333 36.096-1.792 6.101333-0.896 12.288-2.304 18.474666-3.712l0 0zM873.898667 599.210667a32.213333 32.213333 0 0 1-11.605334 9.984c-7.082667 4.010667-14.592 6.826667-22.186666 8.533333-7.296 1.578667-14.506667 3.157333-21.888 4.053333a240.64 240.64 0 0 0 21.888-4.096c7.594667-1.706667 15.104-4.394667 22.186666-8.490666a32.213333 32.213333 0 0 0 11.605334-9.984l0 0z" p-id="24514"></path><path d="M750.08 618.496l0 0c7.338667 1.493333 14.72 2.816 22.016 3.712 7.082667 0.810667 14.208 0.853333 22.101333 1.408-7.893333-0.512-15.018667-0.597333-22.101333-1.408a325.589333 325.589333 0 0 1-22.016-3.712z m-61.397333 137.984v-1.706667c-2.773333 2.133333-5.290667 4.309333-7.978667 6.144a84.437333 84.437333 0 0 1-22.101333 9.685334 168.96 168.96 0 0 1-27.008 5.290666l-6.4 0.725334-2.816 0.298666-2.56 0.170667a299.733333 299.733333 0 0 1-32.085334-0.512 254.549333 254.549333 0 0 1-22.826666-3.072 104.021333 104.021333 0 0 1-22.698667-6.912 60.8 60.8 0 0 1-17.109333-10.410667l-1.706667-1.578666-0.085333 1.578666v42.410667c0 2.304 0.512 4.309333 1.408 6.314667a21.973333 21.973333 0 0 0 7.253333 8.277333c7.125333 5.418667 14.933333 8.533333 22.912 10.709333l3.114667 0.810667c3.413333 0.896 6.698667 1.706667 10.112 2.304a185.429333 185.429333 0 0 0 25.685333 3.285333 193.792 193.792 0 0 0 32.128-0.597333c6.784-0.810667 13.568-1.877333 20.394667-3.114667a96.085333 96.085333 0 0 0 29.098666-10.368 39.466667 39.466667 0 0 0 8.704-6.826666 17.152 17.152 0 0 0 4.693334-12.373334c-0.213333-13.525333-0.128-27.008-0.128-40.533333z m32.298666 57.728c10.026667 6.698667 20.821333 9.898667 31.829334 12.288 4.778667 1.024 9.685333 1.792 14.506666 2.389333a243.413333 243.413333 0 0 0 16.085334 1.493334c10.197333 0.512 20.394667 0.341333 30.592-0.768 1.621333-0.213333 3.285333-0.298667 4.906666-0.512l5.12-0.682667c0.981333-0.213333 1.962667-0.298667 2.986667-0.512 4.992-0.896 9.984-2.133333 14.890667-3.285333 7.296-1.834667 14.421333-4.522667 21.12-8.533334a29.824 29.824 0 0 0 10.88-9.813333 14.421333 14.421333 0 0 0 2.304-7.978667v-42.496c0-0.426667 0-0.896-0.085334-1.408l-3.2 2.901334a68.437333 68.437333 0 0 1-20.906666 11.221333c-9.301333 3.413333-18.901333 5.504-28.501334 6.826667a224.298667 224.298667 0 0 1-53.504 0.896 146.901333 146.901333 0 0 1-14.805333-2.346667 138.325333 138.325333 0 0 1-21.589333-5.888 67.157333 67.157333 0 0 1-22.826667-13.482667v43.946667c0 2.56 0.597333 4.736 1.706667 6.741333 2.218667 4.096 5.205333 6.826667 8.533333 8.96z" p-id="24515"></path><path d="M688.682667 825.813333c0-0.512 0-0.896-0.085334-1.621333l-0.597333 0.512c-2.901333 2.176-5.717333 4.778667-8.704 6.613333a92.288 92.288 0 0 1-27.008 10.496 159.701333 159.701333 0 0 1-23.594667 4.096 217.514667 217.514667 0 0 1-46.933333-0.298666 136.661333 136.661333 0 0 1-30.464-6.229334 71.509333 71.509333 0 0 1-20.096-9.173333c-2.56-1.792-5.12-3.925333-7.68-5.888v44.672c0 0.597333 0.085333 1.194667 0.170667 1.792a17.237333 17.237333 0 0 0 5.205333 9.002667c4.821333 4.821333 10.282667 7.594667 16 10.026666 8.405333 3.498667 17.066667 5.888 25.898667 7.253334 6.698667 1.024 13.525333 2.133333 20.224 2.645333 7.68 0.469333 15.36 0.682667 22.997333 0.426667 8.106667-0.341333 16.213333-1.237333 24.32-2.346667 5.674667-0.810667 11.349333-2.304 16.981333-3.712 7.168-1.792 14.08-4.48 20.778667-8.490667a30.890667 30.890667 0 0 0 10.282667-9.173333 14.634667 14.634667 0 0 0 2.56-8.405333c-0.256-13.994667-0.256-28.117333-0.256-42.24zM876.373333 686.378667l-1.962666 1.621333c-2.005333 1.621333-3.925333 3.2-5.973334 4.48a74.410667 74.410667 0 0 1-17.834666 8.533333 135.552 135.552 0 0 1-10.922667 3.072 282.453333 282.453333 0 0 1-20.053333 3.626667 140.8 140.8 0 0 1-17.109334 1.408c-10.709333 0.298667-21.333333 0.384-32-1.109333-5.546667-0.725333-11.008-1.408-16.512-2.389334a125.141333 125.141333 0 0 1-20.309333-5.632 68.693333 68.693333 0 0 1-18.090667-9.6c-1.621333-1.194667-2.986667-2.474667-4.693333-3.882666 0 0.597333-0.128 0.981333-0.128 1.408v42.496c0 2.090667 0.426667 3.968 1.237333 5.802666a20.906667 20.906667 0 0 0 5.546667 7.253334c6.826667 5.845333 14.421333 9.045333 22.229333 11.434666a180.48 180.48 0 0 0 31.573334 6.485334c4.949333 0.597333 9.813333 0.725333 14.72 1.024a189.610667 189.610667 0 0 0 54.613333-5.546667c6.4-1.450667 12.8-3.754667 18.901333-6.826667a37.546667 37.546667 0 0 0 12.586667-9.344 16.64 16.64 0 0 0 4.096-11.776c-0.085333-13.653333 0-27.221333 0-40.832v-1.706666h0.128z m0 138.112v-1.792l-0.853333 0.810666-2.304 2.090667a61.568 61.568 0 0 1-20.224 11.008 217.941333 217.941333 0 0 1-18.005333 5.12 125.482667 125.482667 0 0 1-14.890667 2.56c-5.290667 0.725333-10.581333 0.896-16 1.28a189.354667 189.354667 0 0 1-36.096-1.152c-0.426667-0.128-0.896-0.128-1.28-0.213333a230.229333 230.229333 0 0 1-16.64-2.901334c-6.485333-1.28-12.8-3.285333-19.072-5.802666-6.528-2.56-12.8-5.888-18.389333-10.88l-1.706667-1.621334c0 0.597333-0.128 0.981333-0.128 1.408v42.794667c0 1.109333 0.128 2.218667 0.426667 3.2 0.981333 4.096 3.285333 6.826667 5.888 9.088 4.821333 4.394667 10.24 7.125333 15.701333 9.386667 9.984 4.138667 20.181333 6.4 30.592 8.021333 5.418667 0.810667 10.794667 1.194667 16.213333 1.621333h0.298667c2.133333 0.170667 4.181333 0.298667 6.314667 0.298667 1.877333 0.085333 3.882667 0.085333 5.802666 0.085333a194.901333 194.901333 0 0 0 45.994667-4.992c5.12-1.194667 10.069333-2.730667 15.104-4.693333l2.176-0.896c5.504-2.432 10.922667-5.205333 15.616-9.813333a17.792 17.792 0 0 0 5.504-13.994667c-0.213333-13.312 0-26.709333 0-40.021333z" p-id="24516"></path><path d="M711.381333 664.405333c0.725333 2.688 2.133333 4.992 4.010667 6.912 2.389333 2.261333 4.906667 4.48 7.594667 6.186667 9.6 5.973333 19.925333 8.96 30.293333 11.178667 5.034667 1.109333 10.026667 1.834667 15.018667 2.432 5.589333 0.682667 11.221333 1.28 16.810666 1.365333 7.509333 0.213333 14.890667 0.128 22.4-0.298667 6.186667-0.298667 12.288-1.066667 18.474667-1.962666 5.12-0.853333 10.24-2.133333 15.317333-3.328 6.912-1.706667 13.696-4.181333 20.181334-7.68a33.450667 33.450667 0 0 0 11.946666-9.813334 14.250667 14.250667 0 0 0 2.858667-8.533333v-43.178667l-0.085333-0.768c-2.986667 2.176-5.802667 4.565333-8.789334 6.485334-9.002667 5.717333-18.730667 8.917333-28.501333 11.093333a211.882667 211.882667 0 0 1-86.826667 0.810667 128.981333 128.981333 0 0 1-19.882666-5.802667 65.408 65.408 0 0 1-17.792-9.898667 77.184 77.184 0 0 1-3.626667-3.2v2.176c0 13.525333 0.128 26.88 0 40.405334 0 2.005333 0.213333 3.84 0.597333 5.418666z" p-id="24517"></path><path d="M714.24 600.490667c3.541333 4.693333 8.064 7.424 12.8 9.898666 7.338667 3.925333 15.146667 6.528 23.04 8.106667 7.338667 1.493333 14.72 2.816 22.016 3.712 7.082667 0.810667 14.208 0.853333 22.101333 1.408 3.882667-0.298667 8.021333-0.512 12.202667-0.725333 3.882667-0.170667 7.893333-0.469333 11.818667-0.981334a240.64 240.64 0 0 0 21.888-4.096c7.594667-1.706667 15.104-4.394667 22.186666-8.533333a32.213333 32.213333 0 0 0 11.605334-9.984 13.056 13.056 0 0 0 0.512-14.293333 19.626667 19.626667 0 0 0-1.92-2.816l-0.298667-0.298667-0.810667-0.981333a29.013333 29.013333 0 0 0-6.101333-4.992c-10.581333-6.826667-22.101333-9.898667-33.706667-12.330667a140.544 140.544 0 0 0-12.970666-1.962667c-5.973333-0.64-11.989333-1.237333-18.090667-1.408a187.562667 187.562667 0 0 0-29.013333 1.066667c-4.906667 0.64-9.813333 1.237333-14.72 2.133333-4.565333 0.853333-9.173333 2.090667-13.781334 3.285334a79.36 79.36 0 0 0-19.797333 8.32 32 32 0 0 0-9.301333 7.978666 13.44 13.44 0 0 0 0 17.322667c0.213333 0 0.213333 0.085333 0.298666 0.170667z m-142.122667 100.224c-6.016 1.066667-11.946667 2.474667-17.834666 4.181333-6.186667 1.706667-12.202667 4.096-17.962667 7.594667a31.061333 31.061333 0 0 0-10.709333 9.514666 13.354667 13.354667 0 0 0-0.512 14.506667c1.706667 2.986667 3.882667 5.12 6.314666 6.997333 6.4 4.992 13.482667 7.893333 20.693334 10.197334a142.378667 142.378667 0 0 0 31.914666 6.485333c6.272 0.597333 12.672 0.896 17.962667 1.194667 0.853333 0 1.621333 0.128 2.304 0.128 5.632-0.213333 9.898667-0.298667 14.208-0.597334l1.621333-0.128 1.578667-0.085333c4.010667-0.298667 8.021333-0.597333 11.989333-1.194667l0.725334-0.128a334.08 334.08 0 0 0 19.882666-4.096c0.512-0.085333 1.024-0.298667 1.493334-0.384a74.197333 74.197333 0 0 0 19.498666-8.021333 32.554667 32.554667 0 0 0 10.325334-8.661333 13.525333 13.525333 0 0 0 0-17.024 30.72 30.72 0 0 0-6.912-6.613334c-9.898667-6.784-20.608-9.984-31.573334-12.373333a164.906667 164.906667 0 0 0-16.938666-2.688 235.221333 235.221333 0 0 0-20.48-1.408 211.584 211.584 0 0 0-17.792 0.469333c-0.853333 0.128-1.621333 0.128-2.432 0.213334a146.901333 146.901333 0 0 0-17.365334 1.92z" p-id="24518"></path></svg>