<?xml version="1.0" standalone="no"?><!DOCTYPE svg PUBLIC "-//W3C//DTD SVG 1.1//EN" "http://www.w3.org/Graphics/SVG/1.1/DTD/svg11.dtd"><svg t="1771731711884" class="icon" viewBox="0 0 1024 1024" version="1.1" xmlns="http://www.w3.org/2000/svg" p-id="26597" xmlns:xlink="http://www.w3.org/1999/xlink" width="200" height="200"><path d="M927.2 330.7c-43.7-43.7-114.7-43.7-158.4 0L515.4 584.2c-38.3 38.3-43.1 97.5-14.2 141l-17.4 17.4c-8.7 8.7-8.7 22.9 0 31.7 8.7 8.7 22.9 8.7 31.7 0l17.4-17.4c43.5 28.8 102.6 24.1 141-14.2l253.4-253.4c43.6-43.9 43.6-114.8-0.1-158.6zM642.1 710.9c-26.2 26.2-68.8 26.2-95 0-26.2-26.2-26.2-68.8 0-95l126.7-126.7 95 95-126.7 126.7z m253.4-253.4l-95 95-95-95 95-95c26.2-26.2 68.8-26.2 95 0 26.2 26.1 26.2 68.8 0 95z" fill="#333333" p-id="26598"></path><path d="M736 892.8c0 12.4-10 22.4-22.4 22.4H131.2c-12.4 0-22.4-10-22.4-22.4V131.2c0-12.4 10-22.4 22.4-22.4h582.4c12.4 0 22.4 10 22.4 22.4V288l44.8-44.8V108.8c0-24.7-20.1-44.8-44.8-44.8H108.8C84.1 64 64 84.1 64 108.8v806.4c0 24.7 20.1 44.8 44.8 44.8H736c24.7 0 44.8-20.1 44.8-44.8V736L736 780.8v112z" fill="#333333" p-id="26599"></path><path d="M556.8 288c0-12.4-10-22.4-22.4-22.4H220.8c-12.4 0-22.4 10-22.4 22.4 0 12.4 10 22.4 22.4 22.4h313.6c12.4 0 22.4-10 22.4-22.4zM220.8 400c-12.4 0-22.4 10-22.4 22.4 0 12.4 10 22.4 22.4 22.4H400c12.4 0 22.4-10 22.4-22.4 0-12.4-10-22.4-22.4-22.4H220.8z" fill="#333333" p-id="26600"></path></svg>