<?xml version="1.0" standalone="no"?><!DOCTYPE svg PUBLIC "-//W3C//DTD SVG 1.1//EN" "http://www.w3.org/Graphics/SVG/1.1/DTD/svg11.dtd"><svg t="1771731990942" class="icon" viewBox="0 0 1024 1024" version="1.1" xmlns="http://www.w3.org/2000/svg" p-id="31447" xmlns:xlink="http://www.w3.org/1999/xlink" width="200" height="200"><path d="M896.271 971.343H127.729C57.567 971.343 0.487 914.263 0.487 844.101V253.699c0-70.162 57.08-127.242 127.242-127.242H896.27c70.162 0 127.242 57.08 127.242 127.242v590.402c0.001 70.163-57.079 127.242-127.241 127.242zM127.729 177.354c-42.097 0-76.345 34.248-76.345 76.345v590.402c0 42.099 34.248 76.345 76.345 76.345H896.27c42.097 0 76.345-34.246 76.345-76.345V253.699c0-42.097-34.248-76.345-76.345-76.345H127.729z" fill="#231815" p-id="31448"></path><path d="M302.688 215.527c-22.395 0-40.717-18.323-40.717-40.717V93.374c0-22.395 18.323-40.717 40.717-40.717 22.395 0 40.717 18.323 40.717 40.717v81.435c0 22.395-18.323 40.718-40.717 40.718zM692.047 215.527c-22.395 0-40.717-18.323-40.717-40.717V93.374c0-22.395 18.323-40.717 40.717-40.717 22.395 0 40.717 18.323 40.717 40.717v81.435c0.001 22.395-18.322 40.718-40.717 40.718zM805.292 368.217H67.29c-17.495 0-31.811-14.314-31.811-31.811 0-17.495 14.314-31.811 31.811-31.811h738.003c17.495 0 31.811 14.314 31.811 31.811-0.001 17.496-14.315 31.811-31.812 31.811zM313.797 617.371h-66.759c-18.83 0-34.236-15.406-34.236-34.236v-68.472c0-18.83 15.406-34.236 34.236-34.236h66.76c18.83 0 34.236 15.406 34.236 34.236v68.472c-0.001 18.829-15.407 34.236-34.237 34.236zM308.708 799.753h-66.76c-18.83 0-34.236-15.406-34.236-34.236v-68.472c0-18.83 15.406-34.236 34.236-34.236h66.76c18.83 0 34.236 15.406 34.236 34.236v68.472c0 18.829-15.406 34.236-34.236 34.236zM547.925 617.371h-66.76c-18.83 0-34.236-15.406-34.236-34.236v-68.472c0-18.83 15.406-34.236 34.236-34.236h66.76c18.83 0 34.236 15.406 34.236 34.236v68.472c0 18.829-15.406 34.236-34.236 34.236zM545.38 799.753h-66.76c-18.83 0-34.236-15.406-34.236-34.236v-68.472c0-18.83 15.406-34.236 34.236-34.236h66.76c18.83 0 34.236 15.406 34.236 34.236v68.472c0.001 18.829-15.406 34.236-34.236 34.236zM782.053 617.371h-66.76c-18.83 0-34.236-15.406-34.236-34.236v-68.472c0-18.83 15.406-34.236 34.236-34.236h66.76c18.83 0 34.236 15.406 34.236 34.236v68.472c0 18.829-15.406 34.236-34.236 34.236zM782.053 799.753h-66.76c-18.83 0-34.236-15.406-34.236-34.236v-68.472c0-18.83 15.406-34.236 34.236-34.236h66.76c18.83 0 34.236 15.406 34.236 34.236v68.472c0 18.829-15.406 34.236-34.236 34.236z" fill="#231815" p-id="31449"></path></svg>