<?xml version="1.0" standalone="no"?><!DOCTYPE svg PUBLIC "-//W3C//DTD SVG 1.1//EN" "http://www.w3.org/Graphics/SVG/1.1/DTD/svg11.dtd"><svg t="1771731529563" class="icon" viewBox="0 0 1024 1024" version="1.1" xmlns="http://www.w3.org/2000/svg" p-id="23459" xmlns:xlink="http://www.w3.org/1999/xlink" width="200" height="200"><path d="M862.208 252.288l-154.496-154.496a87.392 87.392 0 0 0-62.24-25.792H224A88.064 88.064 0 0 0 136 160v704A88.064 88.064 0 0 0 224 952h576A88.064 88.064 0 0 0 888 864V314.496a87.36 87.36 0 0 0-25.792-62.208zM645.472 120c10.688 0 20.736 4.16 28.288 11.712l154.496 154.496c7.456 7.424 11.712 17.76 11.712 28.288V320a8 8 0 0 1-8 8h-160c-22.048 0-40-17.952-40-40V128a8 8 0 0 1 8-8h5.504zM800 904H224c-22.048 0-40-17.952-40-40V160c0-22.048 17.952-40 40-40h360.8c-0.384 2.624-0.8 5.248-0.8 8v160A88.064 88.064 0 0 0 672 376h160c2.752 0 5.376-0.416 8-0.8V864c0 22.048-17.952 40-40 40z" fill="#72246C" p-id="23460"></path><path d="M304.48 622.688l2.752 0.896a16 16 0 0 0 18.304-9.216L356.064 544h106.08l30.592 70.368 1.376 2.528a16 16 0 0 0 27.968-15.296l-98.272-226.272-1.504-2.72a16 16 0 0 0-27.84 2.72L296.192 601.6l-0.896 2.752a16 16 0 0 0 9.184 18.336z m104.672-200.8L448.256 512h-78.272l39.168-90.112zM585.152 528l48-0.032V576l0.256 2.88a16 16 0 0 0 31.744-2.88v-48.032l48 0.032 2.88-0.256a16 16 0 0 0-2.88-31.744l-48-0.032V448l-0.256-2.88a16 16 0 0 0-31.744 2.88v47.968l-48 0.032-2.88 0.256a16 16 0 0 0 2.88 31.744zM736 736H288l-2.88 0.256A16 16 0 0 0 288 768h448l2.88-0.256A16 16 0 0 0 736 736z" fill="#72246C" p-id="23461"></path></svg>