<?xml version="1.0" standalone="no"?><!DOCTYPE svg PUBLIC "-//W3C//DTD SVG 1.1//EN" "http://www.w3.org/Graphics/SVG/1.1/DTD/svg11.dtd"><svg t="1771732039602" class="icon" viewBox="0 0 1024 1024" version="1.1" xmlns="http://www.w3.org/2000/svg" p-id="33484" xmlns:xlink="http://www.w3.org/1999/xlink" width="200" height="200"><path d="M761.094 591.061a171.407 171.407 0 1 0 171.407 171.407 171.407 171.407 0 0 0-171.407-171.407zM737.097 805.32a71.99 71.99 0 1 1 71.562-72.42 71.99 71.99 0 0 1-71.562 73.277z m125.556 53.565a22.283 22.283 0 0 1-14.999 5.999 23.14 23.14 0 0 1-15.426-6l-41.138-40.28a21.426 21.426 0 0 1 0-29.996 21.426 21.426 0 0 1 30.425 0l39.852 39.852a21.426 21.426 0 0 1 1.286 30.425z" p-id="33485"></path><path d="M226.733 818.604a48.85 48.85 0 0 1-49.708-48.422 51.85 51.85 0 0 1 48.851-50.566h326.959A214.259 214.259 0 0 1 761.094 554.21a147.41 147.41 0 0 1 19.283 2.143V213.538a124.27 124.27 0 0 0-124.27-123.413H262.73v475.654a20.997 20.997 0 0 1-42.852 0V95.696a120.413 120.413 0 0 0-85.703 115.27v540.36a108.843 108.843 0 0 0 108.843 110.13h324.816a202.689 202.689 0 0 1-14.998-42.852zM381 191.255h288.82a20.14 20.14 0 0 1 20.57 20.569 20.569 20.569 0 0 1-20.57 20.569H381a20.569 20.569 0 0 1-20.568-20.57 20.14 20.14 0 0 1 20.568-20.568z m0 80.99h257.11a20.569 20.569 0 0 1 0 42.851H381a20.569 20.569 0 0 1 0-42.851z m0 80.99H530.98a20.569 20.569 0 0 1 20.57 20.568 20.14 20.14 0 0 1-20.57 20.57H381a20.14 20.14 0 0 1-20.57-20.57A20.569 20.569 0 0 1 381 353.234z" p-id="33486"></path></svg>