<?xml version="1.0" standalone="no"?><!DOCTYPE svg PUBLIC "-//W3C//DTD SVG 1.1//EN" "http://www.w3.org/Graphics/SVG/1.1/DTD/svg11.dtd"><svg t="1771731502448" class="icon" viewBox="0 0 1024 1024" version="1.1" xmlns="http://www.w3.org/2000/svg" p-id="22384" xmlns:xlink="http://www.w3.org/1999/xlink" width="200" height="200"><path d="M889.344 203.776h-94.208v-26.112c0-28.672-24.576-52.224-53.76-52.224H286.72c-29.184 0-53.76 23.552-53.76 52.224v26.112H138.752c-29.184 0-53.76 23.552-53.76 52.224v104.448c0 78.336 66.048 142.336 146.432 142.336h1.024c12.288 125.952 112.64 225.28 239.616 243.2v53.248H378.368c-29.184 0-53.76 23.552-53.76 52.224v38.912c0 7.168 6.144 12.8 13.312 12.8h347.136c7.168 0 13.312-6.144 13.312-12.8v-38.912c0-28.672-24.576-52.224-53.76-52.224h-94.208v-53.248c126.976-17.92 227.328-118.784 239.616-243.2h1.024c80.384 0 146.432-64 146.432-142.336V256c5.632-29.696-18.944-52.224-48.128-52.224zM234.496 423.424c-36.864 0-67.072-28.672-67.072-65.024V281.088h67.072v142.336z m398.848-27.136l-47.616 47.616 11.264 68.096c1.536 5.632-1.536 10.752-5.632 14.848-3.072 1.536-5.632 2.56-8.704 2.56-2.56 0-5.632 0-7.168-1.536L516.608 496.64l-58.88 31.232c-5.632 2.56-11.264 2.56-16.896-1.536-4.096-2.56-7.168-9.728-5.632-14.848l11.264-68.096-47.616-47.616c-4.096-4.096-5.632-9.728-4.096-14.848 1.536-5.632 7.168-9.728 12.8-9.728l66.048-9.728 29.696-61.44c2.56-5.632 8.704-8.192 13.824-8.192 5.632 0 11.264 2.56 13.824 8.192l29.696 61.44 66.048 9.728c5.632 1.536 9.728 4.096 12.8 9.728-0.512 6.144-2.048 11.264-6.144 15.36z m229.376-36.864c0 35.328-29.184 65.024-67.072 65.024V282.112h67.072v77.312z" fill="" p-id="22385"></path></svg>