<?xml version="1.0" standalone="no"?>
<!DOCTYPE svg PUBLIC "-//W3C//DTD SVG 1.1//EN"
  "http://www.w3.org/Graphics/SVG/1.1/DTD/svg11.dtd">
<svg
  t="1771746765570"
  class="icon"
  viewBox="0 0 1024 1024"
  version="1.1"
  xmlns="http://www.w3.org/2000/svg"
  p-id="44497"
  xmlns:xlink="http://www.w3.org/1999/xlink"
  width="200"
  height="200"
>
  <path
    d="M744.9 632c-46.8 0-89.2 18.8-119.7 49L453 571.8c7.5-18.6 11.7-38.9 11.7-60.1 0-24-5.3-46.9-14.9-67.5L586.3 348c30 26.9 69.9 43.4 113.8 43.4 92.7 0 168.1-73.6 168.1-164s-75.4-164-168.1-164c-92.7 0-168.1 73.6-168.1 164 0 24.1 5.3 46.9 14.9 67.5l-136.5 96.2c-30-26.9-69.9-43.4-113.8-43.4-92.7 0-168.1 73.6-168.1 164s75.4 164 168.1 164c46.8 0 89.2-18.8 119.7-49l172.1 109.2c-7.5 18.6-11.7 38.9-11.7 60.1 0 90.4 75.4 164 168.1 164S913 886.4 913 796s-75.4-164-168.1-164z m-44.8-503c55.6 0 100.9 44.2 100.9 98.4 0 54.3-45.2 98.4-100.9 98.4-32.9 0-62.1-15.4-80.6-39.3-0.3-0.5-0.7-1.1-1.1-1.6l-1.2-1.5c-11.3-15.9-18-35.2-18-56 0-54.2 45.2-98.4 100.9-98.4zM381.9 564.2c-0.3 0.4-0.5 0.7-0.8 1.1-0.2 0.4-0.5 0.7-0.7 1.1-18.1 26.4-48.9 43.7-83.8 43.7-55.6 0-100.9-44.1-100.9-98.4 0-54.3 45.2-98.4 100.9-98.4 55.6 0 100.9 44.1 100.9 98.4 0 19.3-5.7 37.3-15.6 52.5z m363 330.2c-55.6 0-100.9-44.1-100.9-98.4 0-19.4 5.8-37.6 15.8-52.8 0.2-0.3 0.4-0.5 0.5-0.8 0.2-0.3 0.3-0.5 0.5-0.8 18.1-26.5 49-44 84-44 55.6 0 100.9 44.1 100.9 98.4 0.1 54.3-45.2 98.4-100.8 98.4z m0 0"
    p-id="44498"
  />
</svg>
