<?xml version="1.0" standalone="no"?><!DOCTYPE svg PUBLIC "-//W3C//DTD SVG 1.1//EN" "http://www.w3.org/Graphics/SVG/1.1/DTD/svg11.dtd"><svg t="1771732021178" class="icon" viewBox="0 0 1024 1024" version="1.1" xmlns="http://www.w3.org/2000/svg" p-id="32464" xmlns:xlink="http://www.w3.org/1999/xlink" width="200" height="200"><path d="M657.7 796.3H367.3c-17.6 0-29.5 12-29.5 29.5 0 17.6 14.1 29.5 29.5 29.5h290.4c17.6 0 29.5-14.1 29.5-29.5 0-17.6-14.1-29.5-29.5-29.5zM633.8 898.9H391.2c-4.2 0-5.6 5.6-2.1 9.8l88.6 45.7c9.8 4.2 21.8 7.7 35.9 7.7 12 0 21.8-4.2 33.8-7.7l88.6-45.7c4.1-3.5 2-9.8-2.2-9.8z" fill="#828CA0" p-id="32465"></path><path d="M507.9 257.7c35.9 0 66.8 14.1 98.4 43.6 31.6 27.4 45.7 63.3 45.7 106.9 0 14.1 12 29.5 29.5 29.5 15.5 0 29.5-14.1 29.5-29.5 0-63.3-19.7-112.5-61.2-149.8-41.5-37.3-88.6-55.5-142-55.5-15.5 0-29.5 12-29.5 29.5 1.5 11.2 13.4 25.3 29.6 25.3" fill="#67AEF7" p-id="32466"></path><path d="M641.5 747h-258c-29.5 0-53.4-21.8-57-51.3-4.2-5.6-14.1-19.7-17.6-23.9-85.1-65.4-134.3-163.8-134.3-270.7-0.7-187 151.2-338.9 338.9-338.9s339.6 151.9 339.6 339.6c0 108.3-49.2 207.4-136.4 272.1-4.2 4.2-14.1 15.5-17.6 23.9-4.2 25.3-27.4 49.2-57.6 49.2z m-250.3-66.8h242.6c5.6-23.9 29.5-51.3 41.5-61.2 68.9-51.3 108.3-132.2 108.3-219.4 0-149.8-122.3-272.1-272.1-272.1S239.4 249.8 239.4 399.6c0 86.5 39.4 165.9 108.3 217.3 11.8 9.9 37.2 37.3 43.5 63.3z m0 0" fill="#828CA0" p-id="32467"></path></svg>